<svg width="63" height="63" viewBox="0 0 63 63" fill="none" xmlns="http://www.w3.org/2000/svg">
<path fill-rule="evenodd" clip-rule="evenodd" d="M31.5 0C42.2296 0 47.5947 -0.000150919 51.7285 2.00488C55.7704 3.96538 59.0346 7.22964 60.9951 11.2715C63.0002 15.4053 63 20.7704 63 31.5C63 42.2296 63.0002 47.5947 60.9951 51.7285C59.0346 55.7704 55.7704 59.0346 51.7285 60.9951C47.5947 63.0002 42.2296 63 31.5 63C20.7704 63 15.4053 63.0002 11.2715 60.9951C7.22964 59.0346 3.96538 55.7704 2.00488 51.7285C-0.000150919 47.5947 0 42.2296 0 31.5C0 20.7704 -0.000150919 15.4053 2.00488 11.2715C3.96538 7.22964 7.22964 3.96538 11.2715 2.00488C15.4053 -0.000150919 20.7704 0 31.5 0ZM21.832 18L17 45.4014H24.5537L28.3379 23.9404H34.001C34.8885 23.9405 35.6236 24.061 36.2061 24.3018C36.7989 24.5336 37.2188 24.8992 37.4658 25.3984C37.7235 25.889 37.7829 26.5276 37.6445 27.3125C37.5077 28.0882 37.2249 28.7167 36.7959 29.1982C36.3759 29.6799 35.8295 30.0329 35.1562 30.2559C34.4936 30.4699 30.7177 30.5771 29.8301 30.5771L26.1484 36.3564H31.3379L35.0527 45.4014H43.2588L39.0371 35.3389C39.0484 35.3344 39.06 35.3307 39.0713 35.3262C40.7864 34.6394 42.2024 33.6231 43.3184 32.2764C44.4434 30.9296 45.1784 29.2746 45.5244 27.3125C45.8673 25.3681 45.7312 23.7 45.1162 22.3086C44.5011 20.9171 43.4847 19.8507 42.0664 19.1104C40.6482 18.3701 38.9067 18 36.8418 18H21.832Z" fill="black"/>
</svg>
